<svg xmlns="http://www.w3.org/2000/svg" viewBox="0 0 575.56 150.17"><g id="Layer_2" data-name="Layer 2"><g id="Layer_1-2" data-name="Layer 1"><path d="M82.74,47.18H50.55c-2,0-3,1-3,2.91V67.82c0,1.94,1,2.91,3,2.91H60.3a9.73,9.73,0,0,1-4.41,6.65q-3.72,2.49-10.3,2.5A17.47,17.47,0,0,1,39,78.63a16.84,16.84,0,0,1-5.38-3.43,16.25,16.25,0,0,1-5-12V40.18A15.72,15.72,0,0,1,33.9,28.26a18.13,18.13,0,0,1,5.85-3.46,21.15,21.15,0,0,1,7.39-1.25,17.74,17.74,0,0,1,8.44,2,16.89,16.89,0,0,1,6.34,6,2.11,2.11,0,0,0,1,.87,3.05,3.05,0,0,0,1.32.2,6.2,6.2,0,0,0,1.43-.24L67,32l16-7.07a2,2,0,0,0,1.28-1.66,5,5,0,0,0-.89-3.12,39.57,39.57,0,0,0-7-8.9A38.71,38.71,0,0,0,67.5,5,43.75,43.75,0,0,0,57.09,1.25,52.63,52.63,0,0,0,45.51,0,54.72,54.72,0,0,0,27.4,2.91,44.46,44.46,0,0,0,13,11,37.31,37.31,0,0,0,3.44,23.42,36.19,36.19,0,0,0,0,39.21V65.05A35.19,35.19,0,0,0,3.44,80.64,36.24,36.24,0,0,0,13,92.76a44.37,44.37,0,0,0,14.43,7.86,56.86,56.86,0,0,0,18.19,2.81,45.65,45.65,0,0,0,9.37-1,48.7,48.7,0,0,0,9.29-2.94,45.84,45.84,0,0,0,8.43-4.74,36.54,36.54,0,0,0,6.93-6.41,28.89,28.89,0,0,0,4.68-7.93A25,25,0,0,0,86,71.15V50.09Q86,47.18,82.74,47.18Z"/><path d="M167.65,69.76l-4-5.47a41,41,0,0,0,6.62-5.13,37.66,37.66,0,0,0,5.3-6.23,29,29,0,0,0,3.49-7,23.55,23.55,0,0,0,1.23-7.45V31.59a24.93,24.93,0,0,0-2.63-11.22A29.6,29.6,0,0,0,170.36,11a35.69,35.69,0,0,0-11-6.37,39.37,39.37,0,0,0-13.78-2.35H104.18q-3.25,0-3.25,3v92.9q0,2.91,3.25,2.91h21.75a2.85,2.85,0,0,0,2.24-.72,3.34,3.34,0,0,0,.62-2.19V69.48h8.05l12.7,28.82a5.87,5.87,0,0,0,1.39,2.18,3.39,3.39,0,0,0,2.24.59H180c1,0,1.67-.32,1.9-1a2.44,2.44,0,0,0-.12-1.94Zm-16-32.21A7.67,7.67,0,0,1,151,40.7a8,8,0,0,1-1.85,2.63,8.57,8.57,0,0,1-2.91,1.8,10.4,10.4,0,0,1-3.79.66h-13.7V26.67h13.7a10.4,10.4,0,0,1,3.79.66,9,9,0,0,1,2.91,1.77A7.65,7.65,0,0,1,151,31.69a7.75,7.75,0,0,1,.66,3.16Z"/><path d="M270.63,10.7a46.21,46.21,0,0,0-14.75-7.89,60.51,60.51,0,0,0-36.45,0,45.59,45.59,0,0,0-14.71,7.89,37.08,37.08,0,0,0-9.79,12.16,34.22,34.22,0,0,0-3.56,15.66V65.05a34.07,34.07,0,0,0,3.56,15.59,36.63,36.63,0,0,0,9.79,12.12,45.92,45.92,0,0,0,14.71,7.86,57.9,57.9,0,0,0,18.3,2.81,57.3,57.3,0,0,0,18.19-2.81,46.56,46.56,0,0,0,14.71-7.86,36.62,36.62,0,0,0,9.83-12.12A34.2,34.2,0,0,0,284,65.05V38.52a34.39,34.39,0,0,0-3.56-15.62A36.91,36.91,0,0,0,270.63,10.7ZM255.46,63.25A17.23,17.23,0,0,1,254.18,70a15.1,15.1,0,0,1-3.6,5.23A17,17,0,0,1,245,78.63a20.25,20.25,0,0,1-7.28,1.25,20.5,20.5,0,0,1-7.31-1.25,16.8,16.8,0,0,1-5.62-3.43A15.21,15.21,0,0,1,221.21,70a17.05,17.05,0,0,1-1.28-6.72V40.18a16.88,16.88,0,0,1,1.28-6.65,15.57,15.57,0,0,1,3.59-5.27,16.55,16.55,0,0,1,5.62-3.46,22,22,0,0,1,14.63,0,16.6,16.6,0,0,1,5.61,3.46,15.07,15.07,0,0,1,3.56,5.27,17.61,17.61,0,0,1,1.24,6.65Z"/><path d="M374.8,10.7a46.21,46.21,0,0,0-14.75-7.89,60.54,60.54,0,0,0-36.46,0,45.64,45.64,0,0,0-14.7,7.89,37.24,37.24,0,0,0-9.8,12.16,34.34,34.34,0,0,0-3.56,15.66V65.05a34.2,34.2,0,0,0,3.56,15.59,36.78,36.78,0,0,0,9.8,12.12,46,46,0,0,0,14.7,7.86,57.92,57.92,0,0,0,18.31,2.81,57.35,57.35,0,0,0,18.19-2.81,46.67,46.67,0,0,0,14.71-7.86,36.62,36.62,0,0,0,9.83-12.12,34.2,34.2,0,0,0,3.56-15.59V38.52a34.39,34.39,0,0,0-3.56-15.62A36.91,36.91,0,0,0,374.8,10.7ZM359.62,63.25A17.23,17.23,0,0,1,358.35,70a15.1,15.1,0,0,1-3.6,5.23,16.92,16.92,0,0,1-5.58,3.43,20.16,20.16,0,0,1-7.27,1.25,20.59,20.59,0,0,1-7.32-1.25A16.86,16.86,0,0,1,329,75.2a15.1,15.1,0,0,1-3.6-5.23,17.23,17.23,0,0,1-1.27-6.72V40.18a17.06,17.06,0,0,1,1.27-6.65,15.45,15.45,0,0,1,3.6-5.27,16.6,16.6,0,0,1,5.61-3.46,22,22,0,0,1,14.63,0,16.55,16.55,0,0,1,5.62,3.46,15.21,15.21,0,0,1,3.56,5.27,17.6,17.6,0,0,1,1.23,6.65Z"/><path d="M488.73,2.29h-24A5.4,5.4,0,0,0,462,3a3.71,3.71,0,0,0-1.62,2.22l-10.3,40a7.73,7.73,0,0,0,.06,4.16L460.3,83.85a2.19,2.19,0,0,0,4.18.06L490.67,5.2C491.34,3.26,490.7,2.29,488.73,2.29Z"/><path d="M425.57,5.2A3.71,3.71,0,0,0,424,3a5.23,5.23,0,0,0-2.71-.69H397.17c-2.07,0-2.71,1-1.94,2.91l31.19,92.89a4.22,4.22,0,0,0,4.34,3h22.37a1.84,1.84,0,0,0,1.93-2.28Z"/><path d="M572.46,77.38H530.89V63.87h30.42q3.41,0,3.41-2.91V42.6a2.77,2.77,0,0,0-.93-2.32,3.93,3.93,0,0,0-2.48-.72H530.89V26.67h41.65c2,0,3-1,3-2.91V5.26c0-2-1-3-3-3h-67q-3.25,0-3.26,3v92.9q0,2.91,3.26,2.91h67c2.06,0,3.1-1,3.1-2.91V80.29C575.56,78.35,574.52,77.38,572.46,77.38Z"/><path d="M89.69,149.94V130.67L79.07,149.94H77.59L66.94,130.67v19.27H65.1V127.49h2.09l11.12,20.17,11.16-20.17h2.06v22.45Z"/><path d="M153.7,149.94l-3.5-7.05h-13l-3.56,7.05h-2.09L143,127.49h1.69l11.05,22.45Zm-9.87-20L138,141.3h11.49Z"/><path d="M216.19,148.09a14.63,14.63,0,0,1-7.95,2.08q-6.12,0-9.69-2.91a10.33,10.33,0,0,1-3.71-8.48,10.65,10.65,0,0,1,3.55-8.43q3.54-3.09,9.59-3.09a15.34,15.34,0,0,1,7.49,1.65,9.07,9.07,0,0,1,4.39,6.26H218q-1.58-6.36-10-6.36c-3.5,0-6.27.89-8.3,2.65a9.16,9.16,0,0,0-3,7.29,9,9,0,0,0,3.08,7.3q3.08,2.56,8.48,2.57a12.16,12.16,0,0,0,7-2,6.38,6.38,0,0,0,3.09-5.53v-.59H207.88V139h12.24c.07.73.1,1.31.1,1.76A8.18,8.18,0,0,1,216.19,148.09Z"/><path d="M282.07,149.94l-3.49-7.05h-13L262,149.94h-2.09l11.45-22.45H273l11.06,22.45Zm-9.86-20-5.87,11.36h11.48Z"/><path d="M323.33,149.94v-1.49L341.58,129H324.37v-1.55H344V129l-18.26,19.44h18.54v1.55Z"/><path d="M385.68,149.94V127.49h1.83v22.45Z"/><path d="M449.14,149.94,431.43,130v19.94H429.6V127.49h1.9q3.11,3.6,8.86,10,6.22,6.82,8.86,9.87V127.49h1.83v22.45Z"/><path d="M493.17,149.94V127.49h18.58V129H495v8.45h14.87V139H495v9.38h17v1.55Z"/></g></g></svg>