<svg xmlns="http://www.w3.org/2000/svg" viewBox="0 0 442.02 79.43"><g id="Layer_2" data-name="Layer 2"><g id="Layer_1-2" data-name="Layer 1"><path d="M63.55,36.23H38.82a2,2,0,0,0-2.32,2.24V52.09c0,1.49.77,2.23,2.32,2.23h7.49a7.48,7.48,0,0,1-3.39,5.11Q40.07,61.34,35,61.34a13.54,13.54,0,0,1-5-1,12.82,12.82,0,0,1-4.13-2.64A12.5,12.5,0,0,1,22,48.57V30.86A12,12,0,0,1,26,21.71a13.51,13.51,0,0,1,4.49-2.66,16.14,16.14,0,0,1,5.67-1,13.6,13.6,0,0,1,6.48,1.54,13,13,0,0,1,4.88,4.63,1.56,1.56,0,0,0,.77.67,2.43,2.43,0,0,0,1,.15,4.35,4.35,0,0,0,1.1-.18c.38-.11.72-.21,1-.32l12.3-5.43a1.48,1.48,0,0,0,1-1.27,3.81,3.81,0,0,0-.68-2.4,30.41,30.41,0,0,0-5.41-6.83,29.74,29.74,0,0,0-6.83-4.82,33.86,33.86,0,0,0-8-2.87A40.24,40.24,0,0,0,35,0,42,42,0,0,0,21,2.23,34.08,34.08,0,0,0,10,8.46,28.6,28.6,0,0,0,2.65,18,27.7,27.7,0,0,0,0,30.11V50a26.88,26.88,0,0,0,2.65,12A27.83,27.83,0,0,0,10,71.24a34.08,34.08,0,0,0,11.08,6,43.85,43.85,0,0,0,14,2.15,35.44,35.44,0,0,0,7.2-.77,37.18,37.18,0,0,0,7.13-2.26,34.92,34.92,0,0,0,6.48-3.65,27.42,27.42,0,0,0,5.32-4.92,22.55,22.55,0,0,0,3.6-6.09,19.22,19.22,0,0,0,1.3-7.1V38.47C66,37,65.21,36.23,63.55,36.23Z"/><path d="M128.75,53.58l-3.09-4.21a31.12,31.12,0,0,0,5.08-3.94,28.49,28.49,0,0,0,4.07-4.78,22.66,22.66,0,0,0,2.68-5.4,18.1,18.1,0,0,0,.95-5.72V24.26a19.22,19.22,0,0,0-2-8.62,22.77,22.77,0,0,0-5.59-7.18,27.29,27.29,0,0,0-8.44-4.9,30.33,30.33,0,0,0-10.58-1.8H80c-1.67,0-2.5.76-2.5,2.28V75.39c0,1.49.83,2.23,2.5,2.23h16.7a2.14,2.14,0,0,0,1.72-.56,2.5,2.5,0,0,0,.48-1.67v-22h6.18l9.75,22.13a4.66,4.66,0,0,0,1.07,1.68,2.66,2.66,0,0,0,1.72.45h20.63c.79,0,1.28-.24,1.46-.74a1.85,1.85,0,0,0-.09-1.49ZM116.5,28.84a5.9,5.9,0,0,1-.5,2.42,6.31,6.31,0,0,1-1.43,2,6.78,6.78,0,0,1-2.23,1.38,7.94,7.94,0,0,1-2.91.51H98.91V20.48h10.52a7.94,7.94,0,0,1,2.91.51,7.07,7.07,0,0,1,2.23,1.35,6,6,0,0,1,1.43,2,5.86,5.86,0,0,1,.5,2.42Z"/><path d="M207.84,8.22a35.46,35.46,0,0,0-11.33-6.07,46.66,46.66,0,0,0-28,0,35.15,35.15,0,0,0-11.29,6.07,28.5,28.5,0,0,0-7.52,9.34,26.33,26.33,0,0,0-2.73,12V50a26.27,26.27,0,0,0,2.73,12,28.19,28.19,0,0,0,7.52,9.31,35.48,35.48,0,0,0,11.29,6,44.69,44.69,0,0,0,14.06,2.15,44.16,44.16,0,0,0,14-2.15,35.86,35.86,0,0,0,11.3-6,28.16,28.16,0,0,0,7.55-9.31,26.27,26.27,0,0,0,2.73-12V29.58a26.45,26.45,0,0,0-2.73-12A28.44,28.44,0,0,0,207.84,8.22ZM196.19,48.57a13.29,13.29,0,0,1-1,5.16,11.61,11.61,0,0,1-2.77,4,12.88,12.88,0,0,1-4.28,2.64,15.68,15.68,0,0,1-5.59,1,15.87,15.87,0,0,1-5.61-1,12.72,12.72,0,0,1-4.31-2.64,11.61,11.61,0,0,1-2.77-4,13.29,13.29,0,0,1-1-5.16V30.86a13.15,13.15,0,0,1,1-5.11,11.88,11.88,0,0,1,2.77-4A12.31,12.31,0,0,1,177,19.05a16.9,16.9,0,0,1,11.23,0,12.49,12.49,0,0,1,4.31,2.66,11.53,11.53,0,0,1,2.74,4,13.51,13.51,0,0,1,.95,5.11Z"/><path d="M287.84,8.22a35.46,35.46,0,0,0-11.33-6.07,46.66,46.66,0,0,0-28,0,35,35,0,0,0-11.29,6.07,28.5,28.5,0,0,0-7.52,9.34,26.33,26.33,0,0,0-2.74,12V50a26.27,26.27,0,0,0,2.74,12,28.19,28.19,0,0,0,7.52,9.31,35.38,35.38,0,0,0,11.29,6,44.69,44.69,0,0,0,14.06,2.15,44.16,44.16,0,0,0,14-2.15,35.86,35.86,0,0,0,11.3-6,28.16,28.16,0,0,0,7.55-9.31,26.27,26.27,0,0,0,2.73-12V29.58a26.45,26.45,0,0,0-2.73-12A28.44,28.44,0,0,0,287.84,8.22ZM276.18,48.57a13.11,13.11,0,0,1-1,5.16,11.45,11.45,0,0,1-2.76,4,13,13,0,0,1-4.28,2.64,15.68,15.68,0,0,1-5.59,1,16,16,0,0,1-5.62-1,12.92,12.92,0,0,1-4.31-2.64,11.59,11.59,0,0,1-2.76-4,13.29,13.29,0,0,1-1-5.16V30.86a13.15,13.15,0,0,1,1-5.11,11.86,11.86,0,0,1,2.76-4A12.49,12.49,0,0,1,257,19.05a16.93,16.93,0,0,1,11.24,0,12.49,12.49,0,0,1,4.31,2.66,11.38,11.38,0,0,1,2.73,4,13.32,13.32,0,0,1,.95,5.11Z"/><path d="M375.34,1.76H356.91a4.07,4.07,0,0,0-2.14.53A2.86,2.86,0,0,0,353.52,4l-7.91,30.7a5.86,5.86,0,0,0,.05,3.19l7.84,26.51a1.68,1.68,0,0,0,3.21,0L376.83,4C377.34,2.5,376.84,1.76,375.34,1.76Z"/><path d="M326.83,4a2.82,2.82,0,0,0-1.25-1.7,3.9,3.9,0,0,0-2.08-.53H305c-1.59,0-2.08.74-1.49,2.23l24,71.35a3.23,3.23,0,0,0,3.33,2.28H348a1.42,1.42,0,0,0,1.49-1.75Z"/><path d="M439.64,59.43H407.72V49.05h23.36c1.74,0,2.61-.74,2.61-2.23V32.72a2.1,2.1,0,0,0-.71-1.78,2.94,2.94,0,0,0-1.9-.56H407.72v-9.9h32c1.54,0,2.32-.74,2.32-2.23V4a2,2,0,0,0-2.32-2.28H388.22c-1.67,0-2.5.76-2.5,2.28V75.39c0,1.49.83,2.23,2.5,2.23h51.42c1.58,0,2.38-.74,2.38-2.23V61.66C442,60.17,441.22,59.43,439.64,59.43Z"/></g></g></svg>