<svg xmlns="http://www.w3.org/2000/svg" viewBox="0 0 109.26 19.63"><defs><style>.cls-1{fill:#fff;}</style></defs><g id="Layer_2" data-name="Layer 2"><g id="Layer_1-2" data-name="Layer 1"><path class="cls-1" d="M15.71,9H9.59C9.21,9,9,9.14,9,9.51v3.36a.5.5,0,0,0,.57.56h1.86a1.87,1.87,0,0,1-.84,1.26,3.53,3.53,0,0,1-2,.47,3.41,3.41,0,0,1-1.24-.23,3.29,3.29,0,0,1-1-.65,3.42,3.42,0,0,1-.69-1A3.1,3.1,0,0,1,5.44,12V7.63a2.9,2.9,0,0,1,1-2.26,3.24,3.24,0,0,1,1.11-.66A3.92,3.92,0,0,1,9,4.47a3.4,3.4,0,0,1,1.6.38A3.21,3.21,0,0,1,11.75,6a.39.39,0,0,0,.2.16.51.51,0,0,0,.25,0,1,1,0,0,0,.27,0l.25-.07,3-1.35A.38.38,0,0,0,16,4.42a.94.94,0,0,0-.17-.59A7.29,7.29,0,0,0,14.5,2.14,7.08,7.08,0,0,0,12.81,1a7.71,7.71,0,0,0-2-.71A9.89,9.89,0,0,0,8.64,0,10.38,10.38,0,0,0,5.2.55,8.41,8.41,0,0,0,2.46,2.09,7.16,7.16,0,0,0,.65,4.44a7,7,0,0,0-.65,3v4.91a6.76,6.76,0,0,0,.65,3,7,7,0,0,0,1.81,2.3A8.31,8.31,0,0,0,5.2,19.1a10.66,10.66,0,0,0,3.45.53,8.49,8.49,0,0,0,1.78-.19,8.47,8.47,0,0,0,1.77-.56,8.41,8.41,0,0,0,1.6-.9,6.59,6.59,0,0,0,1.31-1.21A5.37,5.37,0,0,0,16,15.26a4.65,4.65,0,0,0,.32-1.75v-4C16.32,9.14,16.12,9,15.71,9Z"/><path class="cls-1" d="M31.82,13.24l-.76-1a7.83,7.83,0,0,0,1.26-1,7.36,7.36,0,0,0,1-1.18A5.06,5.06,0,0,0,34,8.71a4.35,4.35,0,0,0,.24-1.41V6a4.76,4.76,0,0,0-.5-2.13,5.52,5.52,0,0,0-1.38-1.78A6.71,6.71,0,0,0,30.25.88,7.38,7.38,0,0,0,27.64.43H19.78c-.42,0-.62.19-.62.57V18.63c0,.37.2.56.62.56H23.9a.55.55,0,0,0,.43-.14.62.62,0,0,0,.12-.42V13.19H26l2.41,5.47a1.12,1.12,0,0,0,.26.42.69.69,0,0,0,.43.11h5.1c.19,0,.31-.06.36-.19a.48.48,0,0,0,0-.37Zm-3-6.11a1.38,1.38,0,0,1-.13.6,1.68,1.68,0,0,1-.35.5,1.89,1.89,0,0,1-.55.34,2.09,2.09,0,0,1-.72.12h-2.6V5.06h2.6a1.88,1.88,0,0,1,.72.13,1.68,1.68,0,0,1,.55.33,1.46,1.46,0,0,1,.35.5,1.34,1.34,0,0,1,.13.59Z"/><path class="cls-1" d="M51.37,2a8.83,8.83,0,0,0-2.8-1.5,11.56,11.56,0,0,0-6.92,0A8.89,8.89,0,0,0,38.86,2,7.14,7.14,0,0,0,37,4.34a6.48,6.48,0,0,0-.67,3v5a6.5,6.5,0,0,0,.67,3,7,7,0,0,0,1.86,2.3,8.67,8.67,0,0,0,2.79,1.49,10.89,10.89,0,0,0,3.48.53,10.75,10.75,0,0,0,3.45-.53,8.67,8.67,0,0,0,2.79-1.49,6.9,6.9,0,0,0,1.87-2.3,6.51,6.51,0,0,0,.68-3v-5a6.51,6.51,0,0,0-.68-3A7,7,0,0,0,51.37,2ZM48.49,12a3.27,3.27,0,0,1-.24,1.27,2.91,2.91,0,0,1-.68,1,3.43,3.43,0,0,1-1.06.65,4,4,0,0,1-1.38.23,4.09,4.09,0,0,1-1.39-.23,3.37,3.37,0,0,1-1.07-.65,2.91,2.91,0,0,1-.68-1A3.27,3.27,0,0,1,41.75,12V7.63A3.3,3.3,0,0,1,42,6.36a3,3,0,0,1,.68-1,3.07,3.07,0,0,1,1.07-.66,4.15,4.15,0,0,1,2.78,0,3,3,0,0,1,1.06.66,2.83,2.83,0,0,1,.68,1,3.5,3.5,0,0,1,.23,1.27Z"/><path class="cls-1" d="M71.15,2a9,9,0,0,0-2.8-1.5,11.56,11.56,0,0,0-6.92,0A8.67,8.67,0,0,0,58.64,2a7.14,7.14,0,0,0-1.86,2.31,6.49,6.49,0,0,0-.68,3v5a6.51,6.51,0,0,0,.68,3,7,7,0,0,0,1.86,2.3,8.46,8.46,0,0,0,2.79,1.49,11.59,11.59,0,0,0,6.93,0,8.88,8.88,0,0,0,2.79-1.49A7,7,0,0,0,73,15.31a6.51,6.51,0,0,0,.68-3v-5a6.51,6.51,0,0,0-.68-3A7.07,7.07,0,0,0,71.15,2ZM68.27,12A3.27,3.27,0,0,1,68,13.28a2.93,2.93,0,0,1-.69,1,3.21,3.21,0,0,1-1.06.65,4,4,0,0,1-1.38.23,4.09,4.09,0,0,1-1.39-.23,3.32,3.32,0,0,1-1.06-.65,2.91,2.91,0,0,1-.68-1A3.1,3.1,0,0,1,61.52,12V7.63a3.13,3.13,0,0,1,.25-1.27,3,3,0,0,1,.68-1,3,3,0,0,1,1.06-.66,4.15,4.15,0,0,1,2.78,0,3.07,3.07,0,0,1,1.07.66,2.8,2.8,0,0,1,.67,1,3.3,3.3,0,0,1,.24,1.27Z"/><path class="cls-1" d="M92.78.43H88.22a1,1,0,0,0-.53.14.69.69,0,0,0-.31.42L85.43,8.58a1.38,1.38,0,0,0,0,.78l1.94,6.56a.41.41,0,0,0,.79,0L93.14,1C93.27.62,93.15.43,92.78.43Z"/><path class="cls-1" d="M80.79,1a.69.69,0,0,0-.31-.42A1,1,0,0,0,80,.43H75.39C75,.43,74.88.62,75,1L81,18.62a.8.8,0,0,0,.82.57H86a.35.35,0,0,0,.36-.44Z"/><path class="cls-1" d="M108.67,14.69h-7.89V12.12h5.77c.44,0,.65-.18.65-.55V8.09a.52.52,0,0,0-.18-.44.73.73,0,0,0-.47-.14h-5.77V5.06h7.9c.39,0,.58-.18.58-.55V1a.51.51,0,0,0-.58-.57H96c-.41,0-.62.19-.62.57V18.63c0,.37.21.56.62.56h12.71c.39,0,.59-.19.59-.56V15.24C109.26,14.87,109.06,14.69,108.67,14.69Z"/></g></g></svg>